<?xml version="1.0" encoding="UTF-8"?>
<svg id="Layer_2" data-name="Layer 2" xmlns="http://www.w3.org/2000/svg" viewBox="0 0 1881.8 1058.51">
  <defs>
    <style>
      .cls-1 {
        fill: #f1ba1e;
      }

      .cls-2 {
        fill: #fdfdfd;
      }
    </style>
  </defs>
  <g id="Layer_1-2" data-name="Layer 1">
    <g>
      <rect width="1881.8" height="1058.51"/>
      <g id="Horizontal">
        <g id="DVC_Horizontal_Logo_Text" data-name="DVC Horizontal Logo Text">
          <g id="DVC_Text" data-name="DVC Text">
            <path class="cls-2" d="M820.5,572.28c-.38-2.05.67-3.46,1.24-4.93,16.31-41.92,32.63-83.82,48.96-125.69,1.04-2.69,2.24-3.71,5.24-3.67,19.02.2,38.03.04,57.06.25,8.76.1,17.49.99,25.85,3.96,10.68,3.8,15.14,10.54,14.73,21.87-.19,5.2-1.17,10.35-2.88,15.26-6.72,19.37-14.16,38.46-22.3,57.29-9.66,22.44-27,32.96-50.81,34.66-23.52,1.64-47.05.65-70.57,1-2.17.03-4.35,0-6.51,0ZM868.08,541.75c9.24-.21,17.96.39,26.66-.53,9.16-.97,16.07-5.63,20.04-13.79,6.9-14.41,12.77-29.29,17.56-44.53,2.67-8.32-.4-12.25-9.09-13.64-7.62-1.22-15.29-.32-22.93-.71-2.72-.14-4,.64-5.03,3.33-7.22,18.9-14.66,37.67-22.02,56.49-1.68,4.29-3.34,8.6-5.19,13.39Z"/>
            <path class="cls-2" d="M1553.91,438.05c.16,2.01-1.04,3.1-1.77,4.33-24.6,42.19-49.21,84.35-73.82,126.48-1.5,2.57-3.08,3.52-6.09,3.49-20.12-.15-40.24-.15-60.35,0-3.01,0-3.97-.35-3.29-3.75,8.44-42.51,16.76-85.05,24.98-127.59.47-2.42,1.45-3.03,3.79-3,9.31.12,18.62.25,27.94,0,3.79-.12,3.78,1.3,3.14,4.2-7.16,32.31-14.19,64.63-21.37,96.92-.71,3.21-.32,3.87,3.14,4.2,6.02.58,9.04-1.68,11.89-6.99,16.79-31.48,34.08-62.7,51.01-94.12,1.77-3.29,3.71-4.27,7.28-4.19,11.11.17,22.3.02,33.51.02Z"/>
            <path class="cls-2" d="M1744.27,549.88c-2.95,2.55-5.13,4.54-7.4,6.39-11.23,9.09-23.37,16.2-38.14,17.64-1.77.18-3.54.23-5.32.15-13.02-.69-19.36-7.45-19.31-20.48.06-5.35.96-10.65,2.65-15.72,4.61-14.45,10.28-28.55,16.97-42.17,2.32-4.5,5.01-8.8,8.05-12.85,11.28-15.43,26.62-20.55,45.06-18.02,9.25,1.21,18.14,4.38,26.07,9.31,2.1,1.31,3.42,1.36,4.47-.95,2.66-5.87,7.08-7.6,13.45-7,6.88.64,13.86.14,21.37.14-3.56,9.23-6.92,17.99-10.31,26.73-9.78,25.23-19.62,50.43-29.3,75.7-1.06,2.78-2.39,3.68-5.31,3.6-7.52-.22-15.06-.16-22.57,0-2.4.04-3.02-.62-2.69-3.02.84-6.19,1.45-12.38,2.26-19.46ZM1742.51,491.95c-6.22-.55-10.37,3.29-13.31,8.54-6.67,12-11.1,24.93-15.15,37.98-.55,1.78-1.24,3.93.58,5.35s3.72.5,5.41-.44c17.82-9.86,31.32-24.03,41.3-41.68.69-1.22,1-2.14-.54-3.01-5.6-3.14-11.01-6.73-18.27-6.75Z"/>
            <path class="cls-2" d="M1008.25,574.1c-8.38.07-16.67-.54-24.6-3.56-13.97-5.31-21.04-16.44-17.67-31.03,4.16-18,10.73-35.29,20.97-50.84,5.76-8.78,14.23-15.44,24.13-18.97,16.67-6.14,33.91-7.59,51.23-3.77,20,4.41,28.54,18.71,22.84,38.33-3.79,13.28-8.95,26.12-15.41,38.33-11,20.55-29.32,29.22-51.67,31.05-2.58.21-5.18.32-7.77.46-.68.03-1.37,0-2.05,0ZM1037.52,491.92c-10.81,0-17.12,2.52-20.61,9.77-5.48,11.62-10.14,23.6-13.97,35.86-1.35,4.17.18,6.94,4.32,7.74,16.28,3.12,25.64-.65,30.81-14.14,3.12-8.16,6.38-16.28,9.57-24.42,4.58-11.61,2.43-14.74-10.12-14.78v-.03Z"/>
            <path class="cls-2" d="M1348.12,541.44c-3.29,8.51-6.32,16.44-9.34,24.32-.31,1.2-1.26,2.12-2.47,2.39-18.59,4.28-37.29,7.8-56.47,5.37-16.53-2.09-24.4-12.19-23.25-28.87.34-4.77,1.34-9.47,2.97-13.97,3.84-10.67,8.03-21.2,12.59-31.6,9.69-22.29,26.97-33.32,50.9-34.52,9.29-.46,18.62-.82,27.77,1.51,9.74,2.47,18.31,6.76,20.77,17.48,2.63,11.51-.33,21.71-9.35,29.73-6.47,5.75-14.27,9.09-22.29,11.94-13.71,4.86-27.88,7.89-42.13,10.53-2.74.5-4.17,1.43-4.31,4.31-.14,2.88.82,5.04,3.89,5.85,3.52.95,7.08.55,10.61.27,11.88-.91,23.66-2.6,35.44-4.31,1.34-.18,2.69-.23,4.67-.44ZM1303.55,512.78c7.63-.62,24-6.08,29.58-9.69,1.91-1.1,3.5-2.66,4.63-4.55,1.95-3.58.82-6.17-3.21-6.92-3.78-.64-7.63-.77-11.45-.37-6.92.58-11.82,3.91-14.64,10.23-1.65,3.65-3.18,7.3-4.92,11.33v-.03Z"/>
            <path class="cls-2" d="M1218.1,521.53c3.29-8.51,6.14-16.33,9.3-24.01,1.02-2.47.38-3.33-1.91-4.11-5.45-1.93-11.34-2.25-16.97-.95-4.52.93-8.3,3.99-10.14,8.22-5.33,11.84-10.04,23.94-14.12,36.27-2.23,6.89.29,9.86,7.54,9.65,13.44-.35,26.66-2.64,39.93-4.54,1.47-.21,2.94-.4,4.51-.61.58,1.27-.08,2.21-.43,3.16-1.49,4.11-3.02,8.22-4.53,12.33-4.11,11.18-4.11,11.23-15.8,13.25-11.32,1.96-22.69,3.65-34.2,4.15-3.97.15-7.94-.15-11.84-.89-17.32-3.14-26.3-15.37-22.33-33.22,4.32-19.37,11.51-37.95,22.79-54.52,7.16-10.51,17.48-16.85,29.87-19.49,20.55-4.38,40.49-2.1,59.99,5.52,3.39,1.33,4.5,2.61,2.87,6.48-5.32,12.58-10.18,25.36-15.1,38.12-.9,2.33-2.1,3.39-4.68,3.53-8.06.41-16.08,1.04-24.76,1.68Z"/>
            <path class="cls-2" d="M1673.33,442.07c-2.86,7.32-5.4,14.23-8.22,21-1.22,2.89-.44,3.39,2.37,3.29,5.75-.16,11.51,0,17.26-.08,2.47-.05,2.74.65,1.86,2.83-3.06,7.6-6,15.25-8.83,22.94-.77,2.13-2,2.51-3.99,2.47-6.02-.11-12.04,0-18.08-.08-2.08-.04-3.14.62-3.9,2.64-5.08,13.27-10.31,26.48-15.43,39.73-.55,1.4-.92,2.86-1.09,4.35-.43,3.73,1.04,5.45,4.81,5.42,6.01,0,11.89-1.37,18.58-2.2-3.4,8.65-6.62,16.81-9.86,24.98-.44,1.09-1.45,1.18-2.37,1.34-9.96,1.79-19.9,3.75-30.08,3.76-15.2,0-22.91-8.97-20.84-24.06.74-5.01,2.07-9.91,3.96-14.6,4.93-12.61,9.72-25.25,14.79-37.8,1.28-3.16.44-3.73-2.56-3.57-3.29.18-6.57,0-9.86.06-1.71,0-2.22-.58-1.59-2.2,3.17-8.15,6.33-16.31,9.47-24.47.33-1.08,1.42-1.74,2.53-1.53.82,0,1.64.04,2.47,0,3.94-.22,8.74,1.54,11.57-.69,2.61-2.05,3.14-6.73,4.64-10.23,1.87-4.37,2.1-10.54,5.75-12.73,3.44-2.06,9.04-.58,13.67-.6,7.51.03,15.01.05,22.97.05Z"/>
            <path class="cls-2" d="M1096.77,572.28h-13.97q-4.63,0-3.01-4.11c12.55-32.19,25.1-64.38,37.65-96.56,3.98-10.18,8-20.34,11.91-30.54.75-1.97,1.54-3.09,4-3.05,10.41.16,20.8.16,31.18,0,3.1-.05,2.94.96,2.02,3.29-16.73,42.73-33.41,85.49-50.03,128.27-.82,2.21-1.97,2.84-4.2,2.77-5.16-.16-10.36-.07-15.56-.07Z"/>
            <path class="cls-2" d="M1536.23,572.28c-4.93,0-9.86-.19-14.79.06-3.29.17-3.46-.82-2.36-3.59,8.3-20.95,16.44-41.95,24.65-62.94,4.77-12.2,9.62-24.39,14.27-36.64.82-2.27,1.96-3.06,4.4-3.02,10.26.15,20.51.15,30.77,0,2.92-.04,3.09.71,2.1,3.21-13.15,33.42-26.22,66.87-39.22,100.34-.77,2.01-1.75,2.7-3.86,2.63-5.29-.14-10.63-.04-15.96-.04Z"/>
            <path class="cls-2" d="M1501.03,640.88c-6.53,0-12.52-.15-18.51.07-2.72.09-3.71-.74-3.37-3.41.13-1.22.13-2.46,0-3.68-.13-1.56.39-2.15,2.05-2.14,10.11.07,20.23.07,30.35,0,1.78,0,2.34.58,2.33,2.37-.05,7.51,0,15.03.12,22.54,0,1.81-.32,2.62-2.42,2.74-7.98.46-7.97.55-8.22-7.4,0-1.15-.12-2.3-.25-4.61-7.23,13.35-18.22,14.37-30.14,11.51-11.63-2.78-18.57-11.95-19.2-24.1-.63-12.47,5.36-22.19,16.7-26.35,9.45-3.6,19.92-3.4,29.22.57,6.08,2.52,10.46,6.81,12.65,13.15.7,2.03.82,3.4-1.88,3.53-1.1.05-2.18.26-3.22.61-4.11,1.37-7.4,1.37-9.04-3.7-.68-2.06-2.88-3.29-5.02-3.96-6.41-2.17-13.38-1.97-19.65.56-3,1.18-5.25,3.72-6.06,6.84-1.46,5.03-1.33,10.38.38,15.33.7,2.56,2.58,4.64,5.06,5.6,8.22,2.93,16.32,2.95,24.14-1.34,1.68-.92,2.19-1.73,3.99-4.7Z"/>
            <path class="cls-2" d="M1390.93,623.62c0,10.35-.15,20.7.08,31.05.08,3.57-.63,4.93-4.57,4.76-7.74-.35-7.76-.1-7.76-7.68,0-13.81.08-27.61-.06-41.42,0-2.85.82-3.33,3.61-3.75,9.32-1.41,15.48,1.78,20.22,10.11,4.58,8.03,10.63,15.23,16.04,22.78.58.82,1.27,1.57,2.47,3.02,0-10.94.23-20.99-.11-31.02-.13-4.11,1.13-5,5-4.84,7.5.33,7.52.09,7.52,7.54,0,13.97-.08,27.88.07,41.83,0,2.74-.89,3.11-3.42,3.45-8.85,1.18-14.91-1.46-19.59-9.68-5.29-9.29-12.23-17.64-18.45-26.4l-1.05.26Z"/>
            <path class="cls-2" d="M1097.89,660.03c-2.61,0-5.21-.31-7.76-.9-13.65-3.04-21.62-12.89-21.46-26.59.16-13.55,8.14-23.05,21.88-25.74,7.22-1.41,14.43-1.33,21.45,1.25,5.87,2.11,10.59,6.58,13.03,12.33.9,2,.64,3.04-1.72,3.29-1.5.14-2.98.44-4.41.9-3.29,1.13-6.04,1.11-7.13-2.99-.14-.39-.4-.73-.74-.97-6.74-5.21-14.26-3.85-21.56-2.06-5.8,1.41-7.45,6.23-7.82,11.69-.92,13.97,3.51,18.66,17.66,18.59,5.75,0,11.44-.35,13.8-7.06.41-1.18,1.19-1.29,2.27-1.03,1.59.38,3.21.67,4.82.99,6.53,1.32,6.71,1.59,3.08,7.17-5.7,8.78-14.37,11.2-25.38,11.13Z"/>
            <path class="cls-2" d="M1232.94,660.08c-3.29.06-6.58-.32-9.77-1.12-12.89-3.13-20.76-13.08-20.65-26.04.11-13.43,7.56-22.8,20.75-25.83,7.6-1.75,15.21-1.72,22.64.99,5.75,2.06,10.39,6.39,12.84,11.97,1.18,2.47.62,3.46-2.01,3.71-1.36.11-2.71.39-4.01.82-3.34,1.15-5.98,1.11-7.17-3.02-.51-1.31-1.61-2.31-2.96-2.7-7.4-2.59-14.79-2.52-21.91.87-2.3,1.09-3.65,3.29-4.33,5.75-1.37,4.9-1.38,10.08-.04,14.98,1.25,4.68,4.69,6.89,9.14,7.74,4.18.78,8.46.89,12.67.34,3.96-.51,7.14-2.17,8.53-6.06.71-2.01,1.78-2,3.43-1.59,2.37.65,4.79,1.15,7.22,1.49,2.61.3,2.35,1.5,1.54,3.29-3.9,8.78-11.05,12.85-20.18,14.08-1.9.27-3.83.23-5.74.32Z"/>
            <path class="cls-2" d="M1164.85,629.03c4.11-6.49,8.08-12.51,11.67-18.76,1.64-2.93,3.71-3.9,6.91-3.62,2.84.24,5.75.05,8.53.05.65,1.46-.48,2.18-1.04,3.01-5.83,8.75-11.66,17.5-17.64,26.16-1.75,2.27-2.64,5.08-2.51,7.95.23,3.94.06,7.92.06,11.88,0,.54-.05,1.09,0,1.64.22,2.58-1.75,2.21-3.02,1.91-2.98-.71-6.66,2.11-8.98-1.72-.16-.54-.16-1.11,0-1.64,1.78-11.51-1.95-21.2-9.24-30.1-4.64-5.67-8.3-12.15-12.93-19.05,4.88,0,9.14-.07,13.39.04,1.42,0,1.81,1.54,2.47,2.54,4.02,6.45,8.05,12.91,12.34,19.72Z"/>
            <path class="cls-2" d="M1282,632.75c0-7.65.1-15.3-.07-22.95-.06-2.57.76-3.17,3.29-3.17,9.24,0,9.24-.12,9.24,9.04,0,9.7.09,19.4-.06,29.1,0,2.53.63,3.29,3.17,3.19,7.11-.17,14.22,0,21.37-.11,2.32-.05,2.98.64,3.02,2.97.12,8.45.21,8.45-8.11,8.45-9.43,0-18.9-.13-28.29.08-2.98.07-3.61-.88-3.53-3.67.11-7.63-.02-15.29-.02-22.94Z"/>
            <path class="cls-2" d="M1607.43,438.06c-2.4,6.21-4.6,11.92-6.8,17.64-.26.95-1.15,1.58-2.14,1.52h-35.67c2.42-6.24,4.65-11.93,6.82-17.65.25-.95,1.15-1.59,2.13-1.5h35.67Z"/>
            <path class="cls-2" d="M1355.25,632.93c0,7.8-.08,15.61.05,23.39,0,2.28-.57,3-2.93,3.05-9.9.21-9.9.3-9.9-9.63,0-13.15.07-26.3-.07-39.4,0-2.81.67-3.74,3.62-3.71,9.24.07,9.24-.06,9.24,9.04v17.27Z"/>
          </g>
          <g id="DVC_Logo" data-name="DVC Logo">
            <path class="cls-1" d="M421.04,761.91c-46.02-.11-91.89-3.03-137.7-6.94-45.54-3.9-90.94-9.04-136.25-15.09-15.96-2.14-30.31-6.98-41.71-18.84-7.2-7.39-12.37-16.51-15-26.49-12.64-47.66-20.21-96.08-20.73-145.46-.58-53.14,6.96-105.31,21.15-156.4,7.01-25.24,24.83-39.77,50.75-43.56,58.65-8.53,117.59-14.54,176.69-18.79,40.4-2.9,80.86-4.93,121.39-4.05,43.24.9,86.37,3.81,129.44,7.68,38.03,3.41,75.97,7.61,113.82,12.58,7.18.96,14.41,1.74,21.51,3.16,24.38,4.87,40.74,19.27,47.5,43.06,11.14,39.19,17.43,79.3,20.12,119.98,4.11,61.8-3.9,122.35-19.95,181.9-6.82,25.3-24.3,40.34-50.18,44.14-60.67,8.9-121.63,15.05-182.83,19.26-32.63,2.22-65.28,3.8-98,3.85ZM419.57,744.53c31.03-.14,59.99-1.33,88.95-3.29,61.87-4.11,123.5-10.37,184.91-18.77,24.58-3.34,37.07-13.43,42.82-35.91,16.01-62.61,23.63-126,16.89-190.66-3.45-33.36-8.84-66.41-18.15-98.69-4.84-16.86-16.44-27.48-33.83-30.26-37.97-6.08-76.22-10.02-114.49-13.76-35.54-3.47-71.14-6.2-106.83-8.01-39.21-1.99-78.49-1.97-117.69.05-37.99,1.96-75.9,4.93-113.75,8.7-35.13,3.48-70.21,7.4-105.12,12.61-18.9,2.84-31.36,13.89-36.2,32.41-16.54,63.06-24.43,126.95-17.76,192.19,3.42,33.4,8.89,66.41,17.95,98.76,4.87,17.42,16.56,27.99,34.34,31.34,8.86,1.64,17.86,2.63,26.81,3.79,39.22,5.09,78.53,9.29,117.94,12.6,45.01,3.84,90.06,6.62,133.21,6.89h0Z"/>
            <path class="cls-1" d="M482.85,555.41c-1.48,1.07-1.71,2.77-2.36,4.18-7.72,16.76-14.48,33.97-23.27,50.24-6.53,12.08-13.91,23.56-24.01,33.05-11.18,10.5-24.35,15.89-39.76,15.84-19.57-.07-39.14-.12-58.71.07-3.53,0-4.26-1.04-4.21-4.36.2-12.95.08-25.91.08-38.8-1.45-.52-1.64.57-2.1,1.1-20.12,24.65-46.6,37.56-77.78,40.97-21.94,2.4-44.03.55-66.05,1.02-1.99.05-2.56-.67-2.56-2.6.05-21.37.05-42.71,0-64.03,0-2.92,1.74-2.47,3.48-2.47,16.29,0,32.58.32,48.86-.1,16.94-.44,29.66-8.54,36.82-23.89,7.17-15.35,5.13-30.24-5.42-43.51-8.05-10.12-18.94-15.11-31.85-15.24-16.02-.16-32.05-.12-48.03,0-3.03,0-3.91-.71-3.89-3.83.15-20.66.07-41.32.07-61.98,0-1.74-.43-3.55,2.47-3.49,21.19.44,42.45-1.13,63.59.87,32.29,3.06,59.75,15.89,80.46,41.55.29.44.53.9.71,1.39,1.73-1.15,1.16-2.35,1.16-3.29.05-12.04.14-24.08-.04-36.16-.05-3.29.58-4.45,4.17-4.41,17.93.2,35.86.2,53.79,0,3.43,0,4.27.9,4.27,4.3-.12,47.75-.14,95.5-.07,143.25,0,4.93.82,5.46,5.36,3.29,3.18-1.54,5.4-4.16,7.32-7.02,3.93-5.81,6.71-12.2,9.38-18.65,16.74-40.48,33.46-80.93,50.15-121.36,1.16-2.83,2.52-3.84,5.65-3.81,19.98.16,39.96.16,59.94,0,3.8,0,4.04.98,2.56,4.11-2.77,5.75-5.25,11.68-7.81,17.43.92.99,1.45.27,1.91-.05,21.37-14.94,45.42-21.1,71.2-21.37,8.48-.09,16.97.06,25.48-.06,2.29,0,3.07.64,3.06,3-.08,21.06-.08,42.13,0,63.2,0,2.74-1.1,3.03-3.39,3.07-10.12.17-20.27-.87-30.34.53-22.43,3.11-38.71,23.59-36.16,45.24,2.79,23.91,22.48,40.49,45.63,38.9,12.06-.82,21.24-6.57,28.96-15.21,3.54-3.98,6.8-8.22,10.02-12.47,1.27-1.68,2.19-1.84,3.93-.64,17.26,12.05,34.57,24.07,51.91,36.06,1.31.9,2.47,1.51,1.05,3.45-14.88,20.91-32.05,39.13-56.22,49.54-37.36,16.11-104.61,12.15-139.4-38.21-11.39-16.48-17.5-34.83-19.24-54.71-.14-1.31.29-2.74-.76-3.94Z"/>
          </g>
        </g>
      </g>
    </g>
  </g>
</svg>