<?xml version="1.0" encoding="UTF-8"?>
<svg id="Layer_2" xmlns="http://www.w3.org/2000/svg" version="1.1" viewBox="0 0 512 512">
  <!-- Generator: Adobe Illustrator 29.0.1, SVG Export Plug-In . SVG Version: 2.1.0 Build 192)  -->
  <defs>
    <style>
      .st0, .st1 {
        fill: none;
      }

      .st1 {
        stroke: #ec6ea6;
        stroke-linecap: round;
        stroke-linejoin: round;
        stroke-width: 1.1px;
      }

      .st2 {
        fill: #ec6ea6;
      }

      .st3 {
        fill: #ec70a8;
      }
    </style>
  </defs>
  <g id="Layer_2-2">
    <g id="Logo">
      <path class="st0" d="M392.4,178c-69.1-14.7-35.4,6.8-68.7-58.4-.5-.9,0-1.5,1.1-1,12.6,6.4,25.5,14,36.9,23.3,4,3.3,37.6,36.3,30.7,36.1h0Z"/>
      <path class="st0" d="M394.4,195c-18.9,11.5-38.3,24.9-61.1,26.3-10-.5,3.6-10.4,6.5-26.2.9-4.9-.2-13.6,3.3-15,15.5-6.3,33.8,1.3,49.6,6.4,4,1.4,6.8,5.6,1.7,8.6Z"/>
      <path class="st0" d="M335.3,258.5c-5.7-.3-12.8-.1-16.4,0-6.8.3-15.6,1.3-23.4,3-9.3,2-22.1,7.2-36.3,13.3-7.7,3.3-17.8,8.2-25,12.1-20.4,12.2-40.8,25.6-56.6,45.1-12.7,15.8-25.9,36.2-34,54.9-7.7,17.7-11.9,49.5-17,67.7-3.5,12.5-39.3-19.5-47.4-27.7-13.7-14.2-27.9-34.7-37.2-52.1-2.6-4.8,1.8-11.6,8.2-20.1,7.3-9.7,17.2-21.2,22.2-26.7,16.1-17.5,25.6-19.6,46.7-31.6,16.8-9.6,33.2-22.7,40.2-40.1,7.9-19.5,10.8-41.3,15.2-63,4.2-21.5,11.9-49.6,29.7-63.2,18.1-14,41.3-23.3,63.6-26.4,8.5-1.2,16.9-3.5,24,1.1,2.4,1.6-9.8,6.5-12.3,7.8-19.9,9.8-33.9,27.5-54.4,35.6-10.7,4-22.1,8.4-33.5,8.1-3.1-.1.5,9.5,1.7,11.4,8.6,14.2,31.5,27.9,51.1,38.5,12.4,6.7,29.7,13.9,43.4,17.5,14.7,3.9,36.2-.2,43.9,16.4,2.2,4.8,9.2,19,3.5,18.7h0Z"/>
      <path class="st0" d="M316.4,182.2c19.1-15.4,17.2-5.4,10.2-29.4-2.5-8.2-7-22.1-10.8-31.6-2.2-4.5-7.1-9.2-12.1-8.2-10.5,1.9-21.6,5.4-29.3,11.5-27.6,21.6-35.6,29.7-71.2,39.4-1.9.5-1.3,1.5,1.2,3.5,18.4,15,35.8,26.7,57.4,35.8,12.5,5.3,38.2,13.9,56.3,13.5,5.3-.7,6.7-12.9,8-18,1.1-4.3-12.2,4.9-14.7-5.5-1.2-4.8.4-7.2,4.9-11h0ZM289.8,154.9c-1.5-.7-3.2-1.3-4.3-2.6-.3-.4-.8-.3-1.2,0-4.3,2.1-9.3,2.3-14.1,2.8-2,.2-3-.1-4.1-1.1-1.4-1.3,1.4-3.1,3.5-3.4,7.5-1.1,17.5-2.7,20.2-11,.2-1,.6-1.5,1.4-1.7,2.2-.2,3.3.9,3.3,2.7.4,5.2,4.5,9.3,5.8,14.4,1.1,16.1-4.3,2.1-10.7,0h0Z"/>
      <path class="st0" d="M498.6,262.9c-2.9,93.1-64.9,184.5-152,217.9,2.6-13.3,6.2-27.9,9.2-43,2.7-14,5.6-32.4,6.7-46.9,1.4-17,.6-32.5-.2-49.4-1.7-33.9-5.1-68.2-17.6-100-8.7-20-2.4-10.6,20-21.2,13.1-6.5,27.6-12.8,38.2-22.4.8-.8,1.6-1,2.8-.9,13.3.4,8.8-9.6,3.5-16.6-4.6-7.9-9.9-15-15.9-21.7-6-6.7-12.7-12.9-20.1-19-17.8-16-36.3-29.2-57.9-39.7-32.1-14.3-63.1-3.8-93,9.4-22.7,9.6-43.3,27.6-50.8,51.7-7.6,24.4-13.8,47.2-18.2,72.7-6.5,37.2-52.9,53.8-83,77.6-14.8,11.7-25.4,26.9-34.6,41.2-1.4,2.2-2.1,4.1-2.5,3.2-3.3-7.4-6.6-17.7-9.2-25.4-21.8-64.8-13.3-139.6,21.2-198.6C176.2-86.6,505,8.6,498.6,262.9Z"/>
      <path class="st0" d="M348.5,320.3c-.5-15-1.6-29.7-9.5-43-4.6-7.8-27.7-4.7-34.2-3.5-13.5,2.4-65.5,23.6-87.7,41.4-18.4,15.3-32.5,29.3-44.3,46.8-8.5,12.6-12.5,18-18.2,30.9-7.5,16.8-13.9,52-16.9,67.9-1.6,8.5.7,9,7.8,12.6,6.3,3.2,27.4,11.6,31.7,13.1.8.3,2,.7,3.6,1.2.3.1.6.2,1,.3.3.1.7.2,1.1.3,0,0,0,0,0,0,.7.2,1.5.5,2.3.7h0c1.1.3,2.2.7,3.5,1,0,0,0,0,.1,0,.6.2,1.3.4,2,.6.7.2,1.4.4,2.2.6.3.1.7.2,1,.3.4.1.8.2,1.2.3,1.2.3,2.5.6,3.9,1,19.8,4.9,49.8,10,79,6.3,6.1-.7,12.2-1.9,18.2-3.5,10.1-2.7,29.7-6.7,33.1-8.2,0,0,.1,0,.1,0,1.5-.7,5.6-20.4,7.7-28.8,4.1-19.2,9.1-38.4,10.9-58,2.3-26.7,1.1-53.4.4-80.1Z"/>
      <path class="st2" d="M233.7,498.7c-13.4-1.5-25.2-3.7-34.6-6,19.8,4.9,49.8,10,79,6.3-15.3,1.3-30.7,1.1-44.4-.4Z"/>
      <path class="st3" d="M509.8,223.7C487.8,38.2,273.9-60.7,117.3,40.8-66.7,159.7-26.2,439.5,184,501.6c175.5,52.1,350-96.6,325.9-277.9h0ZM79.2,426.8c-13.7-14.2-27.9-34.7-37.2-52.1-2.6-4.8,1.8-11.6,8.2-20.1,7.3-9.7,17.2-21.2,22.2-26.7,16.1-17.5,25.6-19.6,46.7-31.6,16.8-9.6,33.2-22.7,40.2-40.1,7.9-19.5,10.8-41.3,15.2-63,4.2-21.5,11.9-49.6,29.7-63.2,18.1-14,41.3-23.3,63.6-26.4,8.5-1.2,16.9-3.5,24,1.1,2.4,1.6-9.8,6.5-12.3,7.8-19.9,9.8-33.9,27.5-54.4,35.6-10.7,4-22.1,8.4-33.5,8.1-3.1-.1.5,9.5,1.7,11.4,8.6,14.2,31.5,27.9,51.1,38.5,12.4,6.7,29.7,13.9,43.4,17.5,14.7,3.9,36.2-.2,43.9,16.4,2.2,4.8,9.2,19,3.5,18.7-5.7-.3-12.8-.1-16.4,0-6.8.3-15.6,1.3-23.4,3-9.3,2-22.1,7.2-36.3,13.3-7.7,3.3-17.8,8.2-25,12.1-20.4,12.2-40.8,25.6-56.6,45.1-12.7,15.8-25.9,36.2-34,54.9-7.7,17.7-11.9,49.5-17,67.7-3.5,12.5-39.3-19.5-47.4-27.7h0ZM392.4,178c-69.1-14.7-35.4,6.8-68.7-58.4-.5-.9,0-1.5,1.1-1,12.6,6.4,25.5,14,36.9,23.3,4,3.3,37.6,36.3,30.7,36.1h0ZM394.4,195c-18.9,11.5-38.3,24.9-61.1,26.3-10-.5,3.6-10.4,6.5-26.2.9-4.9-.2-13.6,3.3-15,15.5-6.3,33.8,1.3,49.6,6.4,4,1.4,6.8,5.6,1.7,8.6ZM326.6,152.7c6.9,24,8.9,14.1-10.2,29.4-4.5,3.8-6,6.2-4.9,11,2.6,10.4,15.8,1.3,14.7,5.5-1.3,5.1-2.7,17.3-8,18-18.1.4-43.8-8.2-56.3-13.5-21.6-9.1-39-20.8-57.4-35.8-2.6-2.1-3.2-3-1.2-3.5,35.6-9.8,43.6-17.9,71.2-39.4,7.7-6,18.7-9.5,29.3-11.5,5-.9,9.9,3.7,12.1,8.2,3.8,9.4,8.3,23.4,10.8,31.6h0ZM329.5,487.3s0,0-.1,0c-3.3,1.5-18.7,6.8-30.2,8.9-6.9,1.3-14,2.2-21,2.8-29.2,3.6-59.1-1.5-79-6.3-1.3-.3-2.6-.6-3.9-1-.4-.1-.8-.2-1.2-.3-.4,0-.7-.2-1-.3-.7-.2-1.5-.4-2.2-.6-.7-.2-1.4-.4-2-.6,0,0,0,0-.1,0-1.2-.4-2.4-.7-3.5-1h0c-.8-.2-1.6-.5-2.3-.7,0,0,0,0,0,0-.4-.1-.7-.2-1.1-.3-.3-.1-.7-.2-1-.3-1.6-.5-2.8-.9-3.6-1.2-4.3-1.5-25.4-9.9-31.7-13.1-7.1-3.6-9.4-4.1-7.8-12.6,2.9-15.9,9.4-51,16.9-67.9,5.7-12.9,9.7-18.4,18.2-30.9,11.9-17.5,25.9-31.5,44.3-46.8,22.3-17.8,74.2-39,87.7-41.4,6.4-1.1,29.6-4.2,34.2,3.5,7.9,13.4,9.1,28,9.5,43,.7,26.8,1.9,53.4-.4,80.1-1.8,19.6-6.8,38.8-10.9,58-2.1,8.5-6.2,28.1-7.7,28.8h0ZM498.6,262.9c-2.9,93.1-64.9,184.5-152,217.9,2.6-13.3,6.2-27.9,9.2-43,2.7-14,5.6-32.4,6.7-46.9,1.4-17,.6-32.5-.2-49.4-1.7-33.9-5.1-68.2-17.6-100-8.7-20-2.4-10.6,20-21.2,13.1-6.5,27.6-12.8,38.2-22.4.8-.8,1.6-1,2.8-.9,13.3.4,8.8-9.6,3.5-16.6-4.6-7.9-9.9-15-15.9-21.7-6-6.7-12.7-12.9-20.1-19-17.8-16-36.3-29.2-57.9-39.7-32.1-14.3-63.1-3.8-93,9.4-22.7,9.6-43.3,27.6-50.8,51.7-7.6,24.4-13.8,47.2-18.2,72.7-6.5,37.2-52.9,53.8-83,77.6-14.8,11.7-25.4,26.9-34.6,41.2-1.4,2.2-2.1,4.1-2.5,3.2-3.3-7.4-6.6-17.7-9.2-25.4-21.8-64.8-13.3-139.6,21.2-198.6C176.2-86.6,505,8.6,498.6,262.9Z"/>
      <path class="st1" d="M43.7,133.7h0"/>
      <path class="st1" d="M43.7,133.7s0,0,0,0"/>
      <path class="st1" d="M42.2,136.3s0,0,0,0"/>
      <path class="st1" d="M42.3,136.1s0,0,0,.1"/>
      <line class="st1" x1="157.9" y1="478.6" x2="157.9" y2="478.6"/>
      <path class="st2" d="M294.7,140.5c0-1.8-1.1-2.9-3.3-2.7-.8.3-1.1.7-1.4,1.7-2.7,8.3-12.7,9.8-20.2,11-2.2.3-4.9,2.1-3.5,3.4,1.1,1,2.1,1.4,4.1,1.1,4.9-.6,9.8-.7,14.1-2.8.4-.3.8-.3,1.1,0,1.1,1.4,2.8,1.9,4.3,2.6,6.3,2.1,11.7,16.1,10.7,0-1.3-5.1-5.4-9.1-5.8-14.4h0Z"/>
    </g>
  </g>
</svg>