<?xml version="1.0" encoding="UTF-8"?>
<svg id="Layer_2" data-name="Layer 2" xmlns="http://www.w3.org/2000/svg" viewBox="0 0 435.81 51.34">
  <defs>
    <style>
      .cls-1 {
        fill: #ec6fa7;
      }
    </style>
  </defs>
  <g id="Layer_1-2" data-name="Layer 1">
    <g>
      <path class="cls-1" d="M.58,19.51c0-3.17-.06-6.29-.18-9.36C.28,7.08.14,4.01,0,.94c1.25.1,2.52.18,3.82.25,1.3.07,2.57.11,3.82.11s2.52-.06,3.82-.18c1.3-.12,2.57-.18,3.82-.18,2.06,0,4.01.16,5.83.47,1.82.31,3.43.86,4.82,1.66,1.39.79,2.5,1.86,3.31,3.2.82,1.34,1.22,3.02,1.22,5.04,0,3.55-1.12,6.34-3.35,8.35-2.23,2.02-5.15,3.43-8.75,4.25v.14c4.27.19,7.64,1.22,10.12,3.1,2.47,1.87,3.71,4.87,3.71,9,0,2.69-.55,4.94-1.66,6.77-1.1,1.82-2.54,3.3-4.32,4.43-1.78,1.13-3.73,1.92-5.87,2.38-2.14.46-4.26.68-6.37.68-1.15,0-2.32-.02-3.49-.07-1.18-.05-2.34-.07-3.49-.07h-3.49c-1.18,0-2.34.05-3.49.14.14-3.07.28-6.13.4-9.18.12-3.05.18-6.16.18-9.32v-12.38ZM10.37,23.04c1.68,0,3.35-.17,5-.5,1.66-.34,3.13-.9,4.43-1.69,1.3-.79,2.34-1.85,3.13-3.17.79-1.32,1.19-2.99,1.19-5s-.36-3.54-1.08-4.72c-.72-1.18-1.63-2.09-2.74-2.74-1.1-.65-2.35-1.08-3.74-1.3-1.39-.22-2.78-.32-4.18-.32-1.25,0-2.3.04-3.17.11-.86.07-1.63.16-2.3.25-.1,2.3-.19,4.58-.29,6.84-.1,2.26-.14,4.54-.14,6.84v5.4h3.89ZM6.48,33.05c0,2.45.05,4.87.14,7.27.1,2.4.19,4.82.29,7.27.91.1,1.99.18,3.24.25,1.25.07,2.52.11,3.82.11,1.54,0,3.01-.26,4.43-.79,1.42-.53,2.65-1.31,3.71-2.34,1.06-1.03,1.9-2.3,2.52-3.82.62-1.51.94-3.23.94-5.15,0-2.06-.37-3.75-1.12-5.08-.74-1.32-1.81-2.35-3.2-3.1-1.39-.74-3.06-1.26-5-1.55-1.94-.29-4.12-.43-6.52-.43h-3.24v7.34Z"/>
      <path class="cls-1" d="M64.4,10.26c-.12-3.05-.25-6.16-.4-9.32.62.1,1.22.18,1.8.25.58.07,1.15.11,1.73.11s1.15-.04,1.73-.11c.58-.07,1.18-.16,1.8-.25-.14,3.17-.28,6.28-.4,9.32-.12,3.05-.18,6.16-.18,9.32v12.38c0,3.17.06,6.29.18,9.36.12,3.07.25,6.1.4,9.07-1.1-.1-2.28-.14-3.53-.14s-2.42.05-3.53.14c.14-2.98.28-6,.4-9.07.12-3.07.18-6.19.18-9.36v-12.38c0-3.17-.06-6.28-.18-9.32Z"/>
      <path class="cls-1" d="M139.79,48.71c-.94.46-2.06.86-3.38,1.22-1.32.36-2.8.68-4.43.97-1.63.29-3.34.43-5.11.43-3.79,0-7.3-.54-10.51-1.62-3.22-1.08-5.99-2.72-8.32-4.93-2.33-2.21-4.15-4.91-5.47-8.1-1.32-3.19-1.98-6.83-1.98-10.91s.66-7.71,1.98-10.91c1.32-3.19,3.17-5.89,5.54-8.1,2.38-2.21,5.22-3.89,8.53-5.04,3.31-1.15,6.96-1.73,10.94-1.73,3.17,0,6.06.32,8.68.97,2.62.65,4.93,1.43,6.95,2.34-.38.67-.7,1.58-.94,2.74-.24,1.15-.43,2.11-.58,2.88l-.43.14c-.48-.58-1.15-1.22-2.02-1.94s-1.87-1.42-3.02-2.09c-1.15-.67-2.45-1.24-3.89-1.69-1.44-.46-3.02-.68-4.75-.68-2.83,0-5.46.46-7.88,1.37-2.42.91-4.54,2.32-6.34,4.21-1.8,1.9-3.2,4.3-4.21,7.2-1.01,2.9-1.51,6.35-1.51,10.33s.5,7.43,1.51,10.33c1.01,2.91,2.41,5.3,4.21,7.2,1.8,1.9,3.91,3.3,6.34,4.21,2.42.91,5.05,1.37,7.88,1.37,1.73,0,3.32-.22,4.79-.65,1.46-.43,2.81-.95,4.03-1.55,1.22-.6,2.33-1.25,3.31-1.94.98-.7,1.81-1.31,2.48-1.84l.29.29-.65,4.25c-.43.38-1.12.8-2.05,1.26Z"/>
      <path class="cls-1" d="M178.06,30.17c-.48-.82-1.19-2-2.12-3.56-.94-1.56-1.97-3.29-3.1-5.18-1.13-1.9-2.32-3.89-3.56-5.98-1.25-2.09-2.44-4.08-3.56-5.98-1.13-1.9-2.15-3.6-3.06-5.11-.91-1.51-1.61-2.65-2.09-3.42.67.1,1.33.18,1.98.25.65.07,1.31.11,1.98.11s1.33-.04,1.98-.11c.65-.07,1.31-.16,1.98-.25,2.16,4.18,4.36,8.28,6.59,12.31,2.23,4.03,4.6,8.23,7.09,12.6,1.1-1.73,2.26-3.62,3.46-5.69,1.2-2.06,2.4-4.18,3.6-6.34,1.2-2.16,2.35-4.33,3.46-6.52,1.1-2.18,2.14-4.31,3.1-6.37,1.2.24,2.14.36,2.81.36s1.61-.12,2.81-.36c-2.3,3.5-4.37,6.67-6.19,9.5-1.82,2.83-3.43,5.4-4.82,7.7-1.39,2.3-2.62,4.38-3.67,6.23-1.06,1.85-1.97,3.52-2.74,5,0,1.78.01,3.67.04,5.69.02,2.02.06,4,.11,5.94.05,1.94.11,3.74.18,5.4.07,1.66.16,2.99.25,4-1.1-.1-2.28-.14-3.53-.14s-2.42.05-3.53.14c.29-2.5.46-5.52.5-9.07.05-3.55.07-7.27.07-11.16Z"/>
      <path class="cls-1" d="M265.21,48.71c-.94.46-2.06.86-3.38,1.22-1.32.36-2.8.68-4.43.97-1.63.29-3.34.43-5.11.43-3.79,0-7.3-.54-10.51-1.62-3.22-1.08-5.99-2.72-8.32-4.93-2.33-2.21-4.15-4.91-5.47-8.1-1.32-3.19-1.98-6.83-1.98-10.91s.66-7.71,1.98-10.91c1.32-3.19,3.17-5.89,5.54-8.1,2.38-2.21,5.22-3.89,8.53-5.04,3.31-1.15,6.96-1.73,10.94-1.73,3.17,0,6.06.32,8.68.97,2.62.65,4.93,1.43,6.95,2.34-.38.67-.7,1.58-.94,2.74-.24,1.15-.43,2.11-.58,2.88l-.43.14c-.48-.58-1.15-1.22-2.02-1.94s-1.87-1.42-3.02-2.09c-1.15-.67-2.45-1.24-3.89-1.69-1.44-.46-3.02-.68-4.75-.68-2.83,0-5.46.46-7.88,1.37-2.42.91-4.54,2.32-6.34,4.21-1.8,1.9-3.2,4.3-4.21,7.2-1.01,2.9-1.51,6.35-1.51,10.33s.5,7.43,1.51,10.33c1.01,2.91,2.41,5.3,4.21,7.2,1.8,1.9,3.91,3.3,6.34,4.21,2.42.91,5.05,1.37,7.88,1.37,1.73,0,3.32-.22,4.79-.65,1.46-.43,2.81-.95,4.03-1.55,1.22-.6,2.33-1.25,3.31-1.94.98-.7,1.81-1.31,2.48-1.84l.29.29-.65,4.25c-.43.38-1.12.8-2.05,1.26Z"/>
      <path class="cls-1" d="M297.9,10.26c-.12-3.05-.25-6.16-.4-9.32.62.1,1.22.18,1.8.25.58.07,1.15.11,1.73.11s1.15-.04,1.73-.11c.58-.07,1.18-.16,1.8-.25-.14,3.17-.28,6.28-.4,9.32-.12,3.05-.18,6.16-.18,9.32,0,6.05.02,11.29.07,15.73.05,4.44.1,8.41.14,11.92,3.41,0,6.67-.04,9.79-.11s6.48-.35,10.08-.83c-.24.86-.36,1.58-.36,2.16,0,.53.12,1.18.36,1.94-2.21-.1-4.42-.14-6.62-.14h-13.28c-2.14,0-4.36.05-6.66.14.14-2.98.28-6,.4-9.07.12-3.07.18-6.19.18-9.36v-12.38c0-3.17-.06-6.28-.18-9.32Z"/>
      <path class="cls-1" d="M353.91,10.15c-.12-3.07-.25-6.14-.4-9.22,2.16.1,4.31.18,6.44.25,2.14.07,4.28.11,6.44.11s4.29-.04,6.41-.11c2.11-.07,4.25-.16,6.41-.25-.14.72-.22,1.44-.22,2.16s.07,1.44.22,2.16c-1.54-.1-2.94-.19-4.21-.29-1.27-.1-2.62-.19-4.03-.29-1.42-.1-2.96-.18-4.64-.25-1.68-.07-3.7-.11-6.05-.11-.05,1.54-.11,3-.18,4.39-.07,1.39-.11,2.98-.11,4.75,0,1.87.01,3.7.04,5.47.02,1.78.04,3.12.04,4.03,2.11,0,4.01-.02,5.69-.07,1.68-.05,3.22-.11,4.61-.18,1.39-.07,2.67-.14,3.85-.22,1.18-.07,2.29-.16,3.35-.25-.14.72-.22,1.46-.22,2.23,0,.72.07,1.44.22,2.16-1.25-.14-2.7-.26-4.36-.36-1.66-.1-3.31-.16-4.97-.18-1.66-.02-3.22-.05-4.68-.07-1.46-.02-2.63-.04-3.49-.04,0,.43-.01.9-.04,1.4-.02.5-.04,1.14-.04,1.91v7.13c0,2.74.01,4.99.04,6.77.02,1.78.06,3.12.11,4.03h5.04c1.82,0,3.61-.04,5.36-.11,1.75-.07,3.41-.17,4.97-.29,1.56-.12,2.92-.3,4.07-.54-.1.34-.16.71-.18,1.12-.03.41-.04.78-.04,1.12,0,.77.07,1.39.22,1.87-2.16-.1-4.31-.14-6.44-.14h-13.07c-2.16,0-4.34.05-6.55.14.14-3.07.28-6.13.4-9.18.12-3.05.18-6.16.18-9.32v-12.38c0-3.17-.06-6.29-.18-9.36Z"/>
      <path class="cls-1" d="M410.07,43.67c.65.89,1.44,1.69,2.38,2.41.94.72,2.03,1.31,3.28,1.76,1.25.46,2.64.68,4.18.68s3.01-.28,4.28-.83c1.27-.55,2.35-1.3,3.24-2.23.89-.94,1.57-2.04,2.05-3.31.48-1.27.72-2.63.72-4.07,0-2.21-.56-3.96-1.69-5.26-1.13-1.3-2.53-2.38-4.21-3.24-1.68-.86-3.49-1.66-5.44-2.38-1.94-.72-3.76-1.62-5.44-2.7-1.68-1.08-3.08-2.46-4.21-4.14-1.13-1.68-1.69-3.94-1.69-6.77,0-2.02.36-3.85,1.08-5.51.72-1.66,1.76-3.08,3.13-4.28,1.37-1.2,3.01-2.13,4.93-2.81,1.92-.67,4.08-1.01,6.48-1.01s4.29.28,5.98.83c1.68.55,3.24,1.4,4.68,2.56-.43.82-.79,1.68-1.08,2.59-.29.91-.58,2.06-.86,3.46h-.86c-.24-.67-.56-1.4-.97-2.2-.41-.79-.96-1.52-1.66-2.2-.7-.67-1.52-1.24-2.48-1.69-.96-.46-2.11-.68-3.46-.68s-2.58.22-3.71.65c-1.13.43-2.11,1.04-2.95,1.84-.84.79-1.49,1.74-1.94,2.84-.46,1.1-.68,2.3-.68,3.6,0,2.26.56,4.03,1.69,5.33,1.13,1.3,2.53,2.39,4.21,3.28,1.68.89,3.49,1.68,5.44,2.38,1.94.7,3.75,1.55,5.44,2.56,1.68,1.01,3.08,2.3,4.21,3.89,1.13,1.58,1.69,3.7,1.69,6.34,0,2.21-.4,4.3-1.19,6.26-.79,1.97-1.94,3.68-3.46,5.15-1.51,1.46-3.36,2.59-5.54,3.38-2.18.79-4.67,1.19-7.45,1.19-2.98,0-5.39-.4-7.24-1.19-1.85-.79-3.4-1.69-4.64-2.7.43-1.1.73-2.1.9-2.99.17-.89.32-2.03.47-3.42h.86c.38.86.9,1.74,1.55,2.63Z"/>
    </g>
  </g>
</svg>