<?xml version="1.0" encoding="UTF-8"?>
<svg id="Layer_2" data-name="Layer 2" xmlns="http://www.w3.org/2000/svg" viewBox="0 0 327.23 50.98">
  <defs>
    <style>
      .cls-1 {
        fill: #e36ea8;
      }
    </style>
  </defs>
  <g id="Layer_1-2" data-name="Layer 1">
    <g>
      <path class="cls-1" d="M13.57,27.67v13.89c0,3,.33,4.86.98,5.59.89,1.03,2.24,1.55,4.04,1.55h1.83v1.3H0v-1.3h1.79c2.02,0,3.46-.66,4.32-1.97.47-.73.7-2.45.7-5.17V10.76c0-3-.32-4.86-.95-5.59-.91-1.03-2.27-1.55-4.08-1.55H0v-1.3h17.47c4.27,0,7.63.44,10.09,1.32s4.54,2.36,6.22,4.45,2.53,4.56,2.53,7.42c0,3.89-1.28,7.05-3.85,9.49s-6.19,3.66-10.88,3.66c-1.15,0-2.39-.08-3.73-.25s-2.77-.41-4.29-.74Z"/>
      <path class="cls-1" d="M13.57,25.66c1.24.23,2.34.41,3.3.53.96.12,1.78.18,2.46.18,2.44,0,4.54-.94,6.31-2.83,1.77-1.89,2.65-4.33,2.65-7.33,0-2.06-.42-3.98-1.27-5.75s-2.04-3.09-3.59-3.97-3.3-1.32-5.27-1.32c-1.2,0-2.73.22-4.61.67v19.83Z"/>
      <path class="cls-1" d="M52.21,16.84v25.88c0,2.02.15,3.36.44,4.03.29.67.73,1.17,1.3,1.49.57.33,1.62.49,3.15.49v1.27h-15.64v-1.27c1.57,0,2.62-.15,3.16-.46.54-.3.97-.81,1.28-1.51s.47-2.05.47-4.04v-12.41c0-3.49-.11-5.75-.32-6.79-.16-.75-.42-1.27-.77-1.56-.35-.29-.83-.44-1.44-.44-.66,0-1.45.18-2.39.53l-.49-1.27,9.7-3.94h1.55Z"/>
      <path class="cls-1" d="M49.29,0c.98,0,1.82.35,2.51,1.04.69.69,1.04,1.53,1.04,2.51s-.35,1.83-1.04,2.53c-.69.7-1.53,1.05-2.51,1.05s-1.83-.35-2.53-1.05c-.7-.7-1.05-1.55-1.05-2.53s.35-1.82,1.04-2.51c.69-.69,1.54-1.04,2.55-1.04Z"/>
      <path class="cls-1" d="M70.49,23.66c3.77-4.55,7.37-6.82,10.79-6.82,1.76,0,3.27.44,4.54,1.32s2.27,2.33,3.02,4.34c.52,1.41.77,3.56.77,6.47v13.75c0,2.04.16,3.42.49,4.15.26.59.67,1.04,1.25,1.37.57.33,1.63.49,3.18.49v1.27h-15.93v-1.27h.67c1.5,0,2.55-.23,3.15-.69s1.01-1.13,1.25-2.02c.09-.35.14-1.45.14-3.3v-13.18c0-2.93-.38-5.06-1.14-6.38-.76-1.32-2.04-1.99-3.85-1.99-2.79,0-5.57,1.52-8.33,4.57v16.98c0,2.18.13,3.53.39,4.04.33.68.78,1.18,1.35,1.49.57.32,1.74.47,3.5.47v1.27h-15.93v-1.27h.7c1.64,0,2.75-.42,3.32-1.25.57-.83.86-2.42.86-4.76v-11.95c0-3.87-.09-6.22-.26-7.07s-.45-1.42-.81-1.72c-.36-.3-.85-.46-1.46-.46-.66,0-1.44.18-2.36.53l-.53-1.27,9.7-3.94h1.51v6.82Z"/>
      <path class="cls-1" d="M106.63,0v32.06l8.19-7.49c1.73-1.59,2.74-2.6,3.02-3.02.19-.28.28-.56.28-.84,0-.47-.19-.87-.58-1.21s-1.03-.53-1.92-.58v-1.12h13.99v1.12c-1.92.05-3.52.34-4.8.88-1.28.54-2.68,1.5-4.2,2.88l-8.26,7.63,8.26,10.44c2.3,2.88,3.84,4.71,4.64,5.48,1.12,1.1,2.11,1.82,2.95,2.14.59.23,1.6.35,3.06.35v1.27h-15.64v-1.27c.89-.02,1.49-.16,1.81-.4s.47-.59.47-1.04c0-.54-.47-1.41-1.41-2.6l-9.88-12.62v10.69c0,2.09.15,3.46.44,4.11.29.66.71,1.12,1.25,1.41.54.28,1.71.43,3.52.46v1.27h-16.38v-1.27c1.64,0,2.87-.2,3.69-.6.49-.26.87-.66,1.12-1.2.35-.77.53-2.11.53-4.01V13.61c0-3.73-.08-6.01-.25-6.84-.16-.83-.43-1.41-.81-1.72-.38-.32-.87-.47-1.48-.47-.49,0-1.23.2-2.21.6l-.6-1.23,9.56-3.94h1.62Z"/>
      <path class="cls-1" d="M163.62,27.67v13.89c0,3,.33,4.86.98,5.59.89,1.03,2.24,1.55,4.04,1.55h1.83v1.3h-20.43v-1.3h1.79c2.02,0,3.46-.66,4.32-1.97.47-.73.7-2.45.7-5.17V10.76c0-3-.32-4.86-.95-5.59-.91-1.03-2.27-1.55-4.08-1.55h-1.79v-1.3h17.47c4.27,0,7.63.44,10.09,1.32s4.54,2.36,6.22,4.45,2.53,4.56,2.53,7.42c0,3.89-1.28,7.05-3.85,9.49s-6.19,3.66-10.88,3.66c-1.15,0-2.39-.08-3.73-.25s-2.77-.41-4.29-.74Z"/>
      <path class="cls-1" d="M163.62,25.66c1.24.23,2.34.41,3.3.53.96.12,1.78.18,2.46.18,2.44,0,4.54-.94,6.31-2.83,1.77-1.89,2.65-4.33,2.65-7.33,0-2.06-.42-3.98-1.27-5.75s-2.04-3.09-3.59-3.97-3.3-1.32-5.27-1.32c-1.2,0-2.73.22-4.61.67v19.83Z"/>
      <path class="cls-1" d="M219.38,17.79v19.51c0,3.73.09,6.01.26,6.84s.46,1.41.84,1.74.84.49,1.35.49c.73,0,1.55-.2,2.46-.6l.49,1.23-9.63,3.97h-1.58v-6.82c-2.77,3-4.88,4.89-6.33,5.66-1.45.77-2.99,1.16-4.61,1.16-1.81,0-3.37-.52-4.69-1.56-1.32-1.04-2.24-2.38-2.76-4.03-.52-1.64-.77-3.96-.77-6.96v-14.38c0-1.52-.16-2.58-.49-3.16-.33-.59-.81-1.04-1.46-1.35-.65-.32-1.81-.46-3.5-.44v-1.3h11.29v21.55c0,3,.52,4.97,1.56,5.91,1.04.94,2.3,1.41,3.78,1.41,1.01,0,2.15-.32,3.43-.95,1.28-.63,2.79-1.84,4.55-3.62v-18.25c0-1.83-.33-3.06-1-3.71s-2.06-.99-4.17-1.04v-1.3h10.97Z"/>
      <path class="cls-1" d="M239.73,20.32v21.16c0,3,.33,4.9.98,5.7.87,1.03,2.03,1.55,3.48,1.55h2.92v1.27h-19.23v-1.27h1.44c.94,0,1.79-.23,2.57-.7s1.31-1.1,1.6-1.9c.29-.8.44-2.34.44-4.64v-21.16h-6.26v-2.53h6.26v-2.11c0-3.21.52-5.93,1.55-8.16,1.03-2.23,2.61-4.03,4.73-5.4,2.12-1.37,4.51-2.06,7.15-2.06,2.46,0,4.72.8,6.79,2.39,1.36,1.05,2.04,2.24,2.04,3.55,0,.7-.3,1.37-.91,1.99-.61.62-1.27.93-1.97.93-.54,0-1.11-.19-1.71-.58s-1.33-1.22-2.2-2.5c-.87-1.28-1.66-2.14-2.39-2.58-.73-.45-1.54-.67-2.43-.67-1.08,0-1.99.29-2.74.86-.75.57-1.29,1.46-1.62,2.67-.33,1.21-.49,4.32-.49,9.33v2.32h8.3v2.53h-8.3Z"/>
      <path class="cls-1" d="M262.41,20.32v21.16c0,3,.33,4.9.98,5.7.87,1.03,2.03,1.55,3.48,1.55h2.92v1.27h-19.23v-1.27h1.44c.94,0,1.79-.23,2.57-.7s1.31-1.1,1.6-1.9c.29-.8.44-2.34.44-4.64v-21.16h-6.26v-2.53h6.26v-2.11c0-3.21.52-5.93,1.55-8.16,1.03-2.23,2.61-4.03,4.73-5.4,2.12-1.37,4.51-2.06,7.15-2.06,2.46,0,4.72.8,6.79,2.39,1.36,1.05,2.04,2.24,2.04,3.55,0,.7-.3,1.37-.91,1.99-.61.62-1.27.93-1.97.93-.54,0-1.11-.19-1.71-.58s-1.33-1.22-2.2-2.5c-.87-1.28-1.66-2.14-2.39-2.58-.73-.45-1.54-.67-2.43-.67-1.08,0-1.99.29-2.74.86-.75.57-1.29,1.46-1.62,2.67-.33,1.21-.49,4.32-.49,9.33v2.32h8.3v2.53h-8.3Z"/>
      <path class="cls-1" d="M284.91,16.84v25.88c0,2.02.15,3.36.44,4.03.29.67.73,1.17,1.3,1.49.57.33,1.62.49,3.15.49v1.27h-15.64v-1.27c1.57,0,2.62-.15,3.16-.46.54-.3.97-.81,1.28-1.51s.47-2.05.47-4.04v-12.41c0-3.49-.11-5.75-.32-6.79-.16-.75-.42-1.27-.77-1.56s-.83-.44-1.44-.44c-.66,0-1.45.18-2.39.53l-.49-1.27,9.7-3.94h1.55Z"/>
      <path class="cls-1" d="M281.99,0c.98,0,1.82.35,2.51,1.04.69.69,1.04,1.53,1.04,2.51s-.35,1.83-1.04,2.53c-.69.7-1.53,1.05-2.51,1.05s-1.83-.35-2.53-1.05-1.05-1.55-1.05-2.53.35-1.82,1.04-2.51c.69-.69,1.54-1.04,2.55-1.04Z"/>
      <path class="cls-1" d="M303.19,23.66c3.77-4.55,7.37-6.82,10.79-6.82,1.76,0,3.27.44,4.54,1.32s2.27,2.33,3.02,4.34c.52,1.41.77,3.56.77,6.47v13.75c0,2.04.16,3.42.49,4.15.26.59.67,1.04,1.25,1.37s1.63.49,3.18.49v1.27h-15.93v-1.27h.67c1.5,0,2.55-.23,3.15-.69s1.01-1.13,1.25-2.02c.09-.35.14-1.45.14-3.3v-13.18c0-2.93-.38-5.06-1.14-6.38-.76-1.32-2.04-1.99-3.85-1.99-2.79,0-5.57,1.52-8.33,4.57v16.98c0,2.18.13,3.53.39,4.04.33.68.78,1.18,1.35,1.49.57.32,1.74.47,3.5.47v1.27h-15.93v-1.27h.7c1.64,0,2.75-.42,3.32-1.25.57-.83.86-2.42.86-4.76v-11.95c0-3.87-.09-6.22-.26-7.07s-.45-1.42-.81-1.72c-.36-.3-.85-.46-1.46-.46-.66,0-1.44.18-2.36.53l-.53-1.27,9.7-3.94h1.51v6.82Z"/>
    </g>
  </g>
</svg>