<?xml version="1.0" encoding="UTF-8"?>
<svg id="Layer_2" data-name="Layer 2" xmlns="http://www.w3.org/2000/svg" viewBox="0 0 450.97 451.56">
  <defs>
    <style>
      .cls-1, .cls-2 {
        fill: none;
      }

      .cls-2 {
        stroke: #ec6ea6;
        stroke-linecap: round;
        stroke-linejoin: round;
      }

      .cls-3 {
        fill: #ec6ea6;
      }
    </style>
  </defs>
  <g id="Layer_2-2" data-name="Layer 2">
    <g id="Logo">
      <path class="cls-1" d="M318.53,125.08c-10.05-8.26-21.43-14.95-32.51-20.58-.94-.48-1.43.01-1,.84,29.36,57.52-.32,38.61,60.56,51.54,6.09.23-23.53-28.92-27.04-31.8Z"/>
      <path class="cls-1" d="M302.08,158.65c-3.12,1.28-2.14,8.97-2.92,13.28-2.53,14.01-14.53,22.7-5.71,23.14,20.09-1.28,37.19-13.09,53.85-23.21,4.43-2.69,1.96-6.39-1.55-7.6-13.94-4.45-30.05-11.19-43.68-5.62Z"/>
      <path class="cls-1" d="M156.31,292.68c13.91-17.22,31.9-29.04,49.84-39.77,6.36-3.48,15.27-7.76,22-10.66,12.56-5.4,23.78-9.96,32-11.73,6.91-1.49,14.66-2.38,20.65-2.66,3.15-.15,9.45-.27,14.45-.01,4.96.26-1.13-12.28-3.1-16.49-6.82-14.58-25.76-10.99-38.7-14.42-12.06-3.2-27.36-9.54-38.23-15.42-17.26-9.32-37.41-21.38-44.97-33.92-1.03-1.71-4.27-10.16-1.5-10.07,9.99.35,20.01-3.61,29.46-7.1,18.07-7.12,30.43-22.79,47.93-31.42,2.21-1.09,12.98-5.46,10.84-6.85-6.25-4.04-13.63-2-21.11-.94-19.67,2.77-40.09,10.96-56.06,23.28-15.67,11.98-22.44,36.77-26.17,55.76-3.95,19.07-6.49,38.29-13.41,55.52-6.15,15.3-20.54,26.92-35.38,35.36-18.58,10.57-27.01,12.49-41.14,27.9-4.44,4.84-13.15,15-19.56,23.53-5.66,7.54-9.51,13.51-7.25,17.77,8.18,15.37,20.69,33.47,32.73,45.98,7.12,7.23,38.65,35.53,41.77,24.47,4.52-16.04,8.22-44.12,14.98-59.72,7.14-16.48,18.7-34.48,29.92-48.38Z"/>
      <path class="cls-1" d="M267.49,99.48c-9.28,1.69-18.99,4.8-25.79,10.11-24.33,19.01-31.39,26.17-62.74,34.78-1.7.47-1.17,1.29,1.09,3.13,16.23,13.26,31.52,23.55,50.55,31.57,11,4.63,33.65,12.29,49.61,11.91,4.67-.59,5.9-11.41,7.06-15.87.97-3.76-10.71,4.31-12.97-4.89-1.03-4.22.35-6.32,4.28-9.67,16.85-13.57,15.12-4.77,9.02-25.97-2.2-7.21-6.16-19.51-9.47-27.83-1.96-4-6.29-8.07-10.65-7.28ZM255.22,136.51c-1.34-.66-2.78-1.12-3.79-2.31-.29-.35-.69-.3-1.01-.07-3.82,1.88-8.16,2.02-12.44,2.51-1.73.2-2.62-.1-3.57-1.01-1.19-1.13,1.22-2.7,3.12-2.99,6.61-1,15.41-2.37,17.83-9.66.21-.88.55-1.3,1.21-1.53,1.97-.2,2.94.82,2.95,2.38.38,4.63,3.97,8.23,5.1,12.69.94,14.21-3.8,1.89-9.39,0Z"/>
      <path class="cls-1" d="M39.85,116.09C9.44,168.12,1.93,234.09,21.17,291.22c2.29,6.8,5.18,15.9,8.1,22.44.34.75.94-.95,2.16-2.85,8.18-12.62,17.49-26.04,30.51-36.37,26.51-21.01,67.4-35.62,73.1-68.46,3.9-22.48,9.33-42.62,16.06-64.14,6.66-21.32,24.78-37.11,44.77-45.61,26.35-11.7,53.66-20.88,81.9-8.31,18.96,9.23,35.26,20.9,50.96,35.02,12.9,10.7,23.63,22.05,31.67,35.95h0c4.69,6.22,8.61,15.02-3.09,14.66-1.1-.12-1.8.13-2.48.8-9.39,8.52-22.1,14.08-33.67,19.78-19.71,9.3-25.26,1.05-17.62,18.66,10.97,28.09,13.97,58.3,15.45,88.23.74,14.91,1.41,28.58.21,43.59-1.03,12.84-3.52,29.04-5.92,41.39-2.59,13.3-5.79,26.17-8.09,37.92,76.76-29.46,131.37-110.09,133.92-192.21C444.7,7.44,155.08-76.51,39.85,116.09Z"/>
      <path class="cls-1" d="M306.92,282.39c-.41-13.24-1.41-26.15-8.41-37.93-4.07-6.85-24.45-4.11-30.1-3.12-11.91,2.08-57.65,20.81-77.25,36.49-16.23,13.48-28.59,25.84-39.05,41.26-7.52,11.09-11,15.89-16.05,27.28-6.59,14.84-12.26,45.82-14.85,59.86-1.38,7.48.64,7.9,6.88,11.07,5.53,2.81,24.11,10.22,27.9,11.53,7.4,2.57,60.42,20.15,104.89,8.1,9.06-2.45,26.68-6.07,29.3-7.32,1.34-.64,4.89-17.97,6.76-25.43,3.63-16.92,8.01-33.86,9.62-51.1,2.02-23.57,1-47.09.37-70.68ZM138.99,421.98h0s0,0,0,0Z"/>
      <path class="cls-3" d="M449,197.16C429.55,33.57,241.16-53.67,103.28,35.83-58.87,140.75-23.17,387.47,161.97,442.27c154.61,45.91,308.28-85.19,287.03-245.11ZM38.4,117.78s.01-.02.02-.03c0,0-.01.02-.02.03ZM38.4,117.78h0s0,0,0,0ZM37.14,120.01s.05-.08.07-.13c-.02.04-.05.08-.07.13ZM37.11,120.05s-.02.04-.04.06c.01-.02.02-.04.04-.06ZM69.64,376.31c-12.04-12.51-24.55-30.6-32.73-45.98-2.27-4.26,1.59-10.23,7.25-17.77,6.41-8.54,15.12-18.7,19.56-23.53,14.13-15.41,22.56-17.33,41.14-27.9,14.84-8.44,29.23-20.06,35.38-35.36,6.92-17.23,9.46-36.45,13.41-55.52,3.73-19,10.49-43.78,26.17-55.76,15.97-12.31,36.39-20.51,56.06-23.28,7.49-1.05,14.87-3.1,21.11.94,2.14,1.39-8.63,5.75-10.84,6.85-17.5,8.62-29.85,24.3-47.93,31.42-9.45,3.49-19.47,7.45-29.46,7.1-2.77-.1.47,8.36,1.5,10.07,7.56,12.55,27.71,24.6,44.97,33.92,10.87,5.87,26.18,12.22,38.23,15.42,12.94,3.43,31.87-.16,38.7,14.42,1.97,4.21,8.06,16.74,3.1,16.49-4.99-.26-11.3-.13-14.45.01-5.99.28-13.74,1.18-20.65,2.66-8.22,1.77-19.45,6.33-32,11.73-6.74,2.9-15.64,7.19-22,10.66-17.94,10.73-35.93,22.55-49.84,39.77-11.23,13.9-22.78,31.9-29.92,48.38-6.76,15.6-10.46,43.68-14.98,59.72-3.12,11.07-34.64-17.24-41.77-24.47ZM345.57,156.88c-60.87-12.93-31.2,5.98-60.56-51.54-.42-.83.06-1.32,1-.84,11.08,5.63,22.46,12.32,32.51,20.58,3.51,2.88,33.13,32.02,27.04,31.8ZM347.31,171.86c-16.66,10.12-33.76,21.93-53.85,23.21-8.82-.45,3.17-9.14,5.71-23.14.78-4.3-.2-12,2.92-13.28,13.63-5.57,29.73,1.17,43.68,5.62,3.5,1.21,5.98,4.91,1.55,7.6ZM287.6,134.58c6.1,21.2,7.83,12.4-9.02,25.97-3.92,3.34-5.31,5.45-4.28,9.67,2.25,9.2,13.94,1.13,12.97,4.89-1.15,4.46-2.39,15.28-7.06,15.87-15.95.38-38.61-7.28-49.61-11.91-19.03-8.02-34.32-18.32-50.55-31.57-2.26-1.84-2.79-2.67-1.09-3.13,31.34-8.6,38.41-15.77,62.74-34.78,6.8-5.31,16.51-8.42,25.79-10.11,4.36-.8,8.69,3.27,10.65,7.28,3.31,8.32,7.28,20.62,9.47,27.83ZM290.16,429.61c-2.62,1.26-16.47,6.05-26.77,7.95-19.21,3.55-40.04,4.03-57.62,2.13-26.2-2.83-45.36-9.33-49.79-10.86-3.79-1.32-22.36-8.73-27.9-11.53-6.24-3.16-8.26-3.58-6.88-11.07,2.59-14.05,8.26-45.02,14.85-59.86,5.05-11.38,8.53-16.19,16.05-27.28,10.46-15.42,22.82-27.78,39.05-41.26,19.6-15.68,65.35-34.41,77.25-36.49,5.65-.99,26.03-3.73,30.1,3.12,7,11.78,8,24.69,8.41,37.93.63,23.59,1.65,47.11-.37,70.68-1.61,17.24-5.98,34.18-9.62,51.1-1.87,7.46-5.43,24.79-6.76,25.43ZM439.12,231.72c-2.55,82.12-57.16,162.75-133.92,192.21,2.29-11.75,5.5-24.61,8.09-37.92,2.4-12.35,4.9-28.55,5.92-41.39,1.2-15.02.53-28.68-.21-43.59-1.48-29.93-4.48-60.14-15.45-88.23-7.63-17.61-2.08-9.36,17.62-18.66,11.57-5.7,24.28-11.26,33.67-19.78.69-.67,1.39-.92,2.48-.8,11.69.36,7.77-8.44,3.09-14.66h0c-8.04-13.9-18.77-25.25-31.67-35.95-15.69-14.12-31.99-25.79-50.96-35.02-28.25-12.57-55.56-3.38-81.9,8.31-19.99,8.51-38.1,24.29-44.77,45.61-6.73,21.52-12.16,41.66-16.06,64.14-5.7,32.83-46.59,47.45-73.1,68.46-13.03,10.32-22.33,23.74-30.51,36.37-1.23,1.9-1.83,3.6-2.16,2.85-2.92-6.55-5.82-15.65-8.1-22.44C1.93,234.09,9.44,168.12,39.85,116.09,155.08-76.51,444.7,7.44,439.12,231.72Z"/>
      <path class="cls-2" d="M38.4,117.78h0"/>
      <path class="cls-2" d="M38.4,117.78s.01-.02.02-.03"/>
      <path class="cls-2" d="M37.08,120.12s.02-.04.04-.06"/>
      <path class="cls-2" d="M37.21,119.89s-.05.08-.07.13"/>
      <line class="cls-2" x1="138.99" y1="421.98" x2="138.99" y2="421.98"/>
      <path class="cls-3" d="M259.51,123.83c-.01-1.56-.98-2.58-2.95-2.38-.67.23-1,.65-1.21,1.53-2.41,7.29-11.22,8.66-17.83,9.66-1.9.29-4.31,1.86-3.12,2.99.96.91,1.85,1.21,3.57,1.01,4.29-.49,8.62-.63,12.44-2.51.33-.23.72-.28,1.01.07,1.01,1.2,2.45,1.65,3.79,2.31,5.59,1.89,10.33,14.22,9.39,0-1.13-4.46-4.72-8.06-5.1-12.69Z"/>
    </g>
  </g>
</svg>