<?xml version="1.0" encoding="UTF-8"?>
<svg id="Layer_2" data-name="Layer 2" xmlns="http://www.w3.org/2000/svg" viewBox="0 0 450.97 451.55">
  <defs>
    <style>
      .cls-1, .cls-2 {
        fill: none;
      }

      .cls-2 {
        stroke: #ec6ea6;
        stroke-linecap: round;
        stroke-linejoin: round;
      }

      .cls-3 {
        fill: #ec6ea6;
      }

      .cls-4 {
        fill: #ec70a8;
      }
    </style>
  </defs>
  <g id="Layer_2-2" data-name="Layer 2">
    <g id="Logo">
      <path class="cls-1" d="M345.56,156.88c-60.87-12.93-31.19,5.98-60.55-51.54-.43-.82.06-1.31,1-.84,11.08,5.63,22.46,12.32,32.51,20.58,3.51,2.89,33.13,32.03,27.04,31.8Z"/>
      <path class="cls-1" d="M347.3,171.86c-16.66,10.12-33.76,21.93-53.85,23.21-8.82-.45,3.17-9.14,5.71-23.15.78-4.3-.2-11.99,2.92-13.27,13.63-5.57,29.73,1.17,43.68,5.62,3.5,1.2,5.98,4.9,1.54,7.59Z"/>
      <path class="cls-1" d="M295.25,227.84c-4.99-.26-11.3-.13-14.45.01-5.99.29-13.74,1.18-20.65,2.67-8.22,1.77-19.44,6.32-32,11.72-6.74,2.9-15.64,7.19-22,10.67-17.94,10.73-35.93,22.55-49.84,39.77-11.23,13.9-22.78,31.9-29.92,48.38-6.76,15.6-10.47,43.68-14.99,59.72-3.11,11.06-34.64-17.24-41.76-24.47-12.04-12.5-24.55-30.6-32.73-45.97-2.27-4.26,1.58-10.23,7.24-17.77,6.42-8.54,15.13-18.7,19.56-23.53,14.14-15.41,22.56-17.33,41.15-27.9,14.83-8.44,29.23-20.06,35.37-35.36,6.92-17.23,9.47-36.45,13.41-55.52,3.73-19,10.5-43.78,26.17-55.76,15.97-12.32,36.39-20.52,56.06-23.28,7.48-1.05,14.86-3.1,21.11.94,2.14,1.39-8.63,5.76-10.84,6.85-17.49,8.62-29.85,24.29-47.92,31.41-9.46,3.49-19.48,7.45-29.47,7.1-2.77-.1.47,8.36,1.5,10.07,7.56,12.54,27.71,24.6,44.97,33.92,10.88,5.87,26.18,12.22,38.24,15.42,12.93,3.43,31.87-.16,38.69,14.42,1.97,4.21,8.06,16.75,3.1,16.49Z"/>
      <path class="cls-1" d="M278.58,160.55c16.85-13.57,15.11-4.77,9.02-25.97-2.2-7.21-6.16-19.51-9.47-27.83-1.96-4-6.29-8.07-10.65-7.27-9.28,1.69-18.99,4.8-25.78,10.11-24.33,19.01-31.4,26.18-62.74,34.78-1.7.46-1.17,1.29,1.09,3.13,16.24,13.26,31.52,23.55,50.55,31.57,11,4.64,33.66,12.29,49.61,11.91,4.67-.59,5.9-11.41,7.06-15.87.97-3.76-10.72,4.31-12.97-4.89-1.03-4.22.35-6.32,4.28-9.67ZM255.21,136.51c-1.33-.66-2.78-1.11-3.78-2.31-.3-.35-.69-.3-1.02-.07-3.82,1.88-8.15,2.02-12.44,2.51-1.72.2-2.62-.1-3.57-1.01-1.19-1.13,1.21-2.7,3.12-2.99,6.6-1,15.41-2.37,17.82-9.66.22-.88.55-1.3,1.22-1.53,1.97-.2,2.93.82,2.94,2.38.38,4.62,3.97,8.22,5.1,12.69.94,14.21-3.8,1.89-9.39,0Z"/>
      <path class="cls-1" d="M439.12,231.72c-2.55,82.11-57.16,162.75-133.92,192.2,2.29-11.74,5.5-24.61,8.08-37.92,2.41-12.35,4.9-28.55,5.93-41.39,1.2-15.02.52-28.68-.21-43.59-1.49-29.93-4.49-60.15-15.46-88.23-7.63-17.61-2.08-9.36,17.63-18.66,11.56-5.7,24.28-11.25,33.67-19.78.69-.67,1.38-.91,2.48-.79,11.69.36,7.77-8.44,3.09-14.67-4.02-6.95-8.71-13.25-14.01-19.17-5.3-5.91-11.21-11.42-17.66-16.77-15.7-14.12-32-25.79-50.96-35.03-28.25-12.57-55.56-3.38-81.91,8.31-19.99,8.51-38.1,24.3-44.76,45.62-6.73,21.52-12.16,41.66-16.06,64.14-5.71,32.83-46.59,47.44-73.1,68.45-13.03,10.33-22.33,23.75-30.51,36.37-1.23,1.9-1.83,3.6-2.17,2.85-2.92-6.55-5.82-15.65-8.1-22.44C1.93,234.08,9.43,168.12,39.84,116.09,155.08-76.51,444.69,7.44,439.12,231.72Z"/>
      <path class="cls-1" d="M306.91,282.39c-.41-13.24-1.41-26.15-8.41-37.93-4.07-6.85-24.44-4.11-30.1-3.12-11.9,2.08-57.65,20.81-77.25,36.49-16.23,13.48-28.59,25.84-39.05,41.26-7.52,11.09-11,15.89-16.05,27.28-6.59,14.84-12.26,45.82-14.85,59.86-1.38,7.48.64,7.9,6.88,11.07,5.53,2.8,24.11,10.22,27.89,11.53.69.24,1.75.6,3.13,1.05.28.09.57.19.87.28.3.09.62.19.95.3.02.01.04.02.07.02.63.2,1.32.41,2.05.63h.01c.94.28,1.96.58,3.05.9.04,0,.08.02.12.03.57.16,1.16.33,1.76.49.62.18,1.26.35,1.92.52.3.09.61.17.92.25.35.09.72.18,1.09.28,1.09.28,2.23.57,3.4.85,17.45,4.29,43.84,8.79,69.54,5.59,5.4-.66,10.76-1.67,16.01-3.09,8.92-2.41,26.13-5.95,29.17-7.26.05-.02.09-.04.13-.06,1.34-.64,4.89-17.97,6.76-25.43,3.64-16.92,8.01-33.86,9.62-51.11,2.02-23.57,1-47.08.37-70.68Z"/>
      <path class="cls-3" d="M205.77,439.7c-11.82-1.28-22.21-3.3-30.46-5.27,17.45,4.29,43.84,8.79,69.54,5.59-13.51,1.16-27.05.97-39.08-.32Z"/>
      <path class="cls-4" d="M448.99,197.16C429.54,33.57,241.16-53.67,103.27,35.83-58.87,140.75-23.17,387.47,161.96,442.27c154.61,45.91,308.28-85.19,287.03-245.11ZM69.64,376.31c-12.04-12.5-24.55-30.6-32.73-45.97-2.27-4.26,1.58-10.23,7.24-17.77,6.42-8.54,15.13-18.7,19.56-23.53,14.14-15.41,22.56-17.33,41.15-27.9,14.83-8.44,29.23-20.06,35.37-35.36,6.92-17.23,9.47-36.45,13.41-55.52,3.73-19,10.5-43.78,26.17-55.76,15.97-12.32,36.39-20.52,56.06-23.28,7.48-1.05,14.86-3.1,21.11.94,2.14,1.39-8.63,5.76-10.84,6.85-17.49,8.62-29.85,24.29-47.92,31.41-9.46,3.49-19.48,7.45-29.47,7.1-2.77-.1.47,8.36,1.5,10.07,7.56,12.54,27.71,24.6,44.97,33.92,10.88,5.87,26.18,12.22,38.24,15.42,12.93,3.43,31.87-.16,38.69,14.42,1.97,4.21,8.06,16.75,3.1,16.49-4.99-.26-11.3-.13-14.45.01-5.99.29-13.74,1.18-20.65,2.67-8.22,1.77-19.44,6.32-32,11.72-6.74,2.9-15.64,7.19-22,10.67-17.94,10.73-35.93,22.55-49.84,39.77-11.23,13.9-22.78,31.9-29.92,48.38-6.76,15.6-10.47,43.68-14.99,59.72-3.11,11.06-34.64-17.24-41.76-24.47ZM345.56,156.88c-60.87-12.93-31.19,5.98-60.55-51.54-.43-.82.06-1.31,1-.84,11.08,5.63,22.46,12.32,32.51,20.58,3.51,2.89,33.13,32.03,27.04,31.8ZM347.3,171.86c-16.66,10.12-33.76,21.93-53.85,23.21-8.82-.45,3.17-9.14,5.71-23.15.78-4.3-.2-11.99,2.92-13.27,13.63-5.57,29.73,1.17,43.68,5.62,3.5,1.2,5.98,4.9,1.54,7.59ZM287.6,134.58c6.09,21.2,7.83,12.4-9.02,25.97-3.93,3.35-5.31,5.45-4.28,9.67,2.25,9.2,13.94,1.13,12.97,4.89-1.16,4.46-2.39,15.28-7.06,15.87-15.95.38-38.61-7.27-49.61-11.91-19.03-8.02-34.31-18.31-50.55-31.57-2.26-1.84-2.79-2.67-1.09-3.13,31.34-8.6,38.41-15.77,62.74-34.78,6.79-5.31,16.5-8.42,25.78-10.11,4.36-.8,8.69,3.27,10.65,7.27,3.31,8.32,7.27,20.62,9.47,27.83ZM290.16,429.61s-.08.04-.13.06c-2.92,1.35-16.5,6.02-26.64,7.89-6.07,1.12-12.3,1.94-18.54,2.46-25.7,3.2-52.09-1.3-69.54-5.59-1.17-.28-2.31-.57-3.4-.85-.37-.1-.74-.19-1.09-.28-.31-.08-.62-.16-.92-.25-.66-.17-1.3-.34-1.92-.52-.6-.16-1.19-.32-1.76-.49-.04-.01-.08-.02-.12-.03-1.09-.31-2.11-.61-3.05-.9h-.01c-.73-.22-1.42-.43-2.05-.63-.03,0-.05-.01-.07-.02-.33-.1-.65-.2-.95-.3-.3-.09-.59-.19-.87-.28-1.38-.45-2.44-.81-3.13-1.05-3.78-1.31-22.36-8.73-27.89-11.53-6.24-3.17-8.26-3.59-6.88-11.07,2.59-14.04,8.26-45.02,14.85-59.86,5.05-11.39,8.53-16.19,16.05-27.28,10.46-15.42,22.82-27.78,39.05-41.26,19.6-15.68,65.35-34.41,77.25-36.49,5.66-.99,26.03-3.73,30.1,3.12,7,11.78,8,24.69,8.41,37.93.63,23.6,1.65,47.11-.37,70.68-1.61,17.25-5.98,34.19-9.62,51.11-1.87,7.46-5.42,24.79-6.76,25.43ZM439.12,231.72c-2.55,82.11-57.16,162.75-133.92,192.2,2.29-11.74,5.5-24.61,8.08-37.92,2.41-12.35,4.9-28.55,5.93-41.39,1.2-15.02.52-28.68-.21-43.59-1.49-29.93-4.49-60.15-15.46-88.23-7.63-17.61-2.08-9.36,17.63-18.66,11.56-5.7,24.28-11.25,33.67-19.78.69-.67,1.38-.91,2.48-.79,11.69.36,7.77-8.44,3.09-14.67-4.02-6.95-8.71-13.25-14.01-19.17-5.3-5.91-11.21-11.42-17.66-16.77-15.7-14.12-32-25.79-50.96-35.03-28.25-12.57-55.56-3.38-81.91,8.31-19.99,8.51-38.1,24.3-44.76,45.62-6.73,21.52-12.16,41.66-16.06,64.14-5.71,32.83-46.59,47.44-73.1,68.45-13.03,10.33-22.33,23.75-30.51,36.37-1.23,1.9-1.83,3.6-2.17,2.85-2.92-6.55-5.82-15.65-8.1-22.44C1.93,234.08,9.43,168.12,39.84,116.09,155.08-76.51,444.69,7.44,439.12,231.72Z"/>
      <path class="cls-2" d="M38.39,117.78h0"/>
      <path class="cls-2" d="M38.39,117.77s.01-.02.02-.03"/>
      <path class="cls-2" d="M37.07,120.11s.02-.04.04-.06"/>
      <path class="cls-2" d="M37.21,119.88s-.05.08-.07.13"/>
      <line class="cls-2" x1="138.98" y1="421.97" x2="138.98" y2="421.97"/>
      <path class="cls-3" d="M259.5,123.82c-.01-1.56-.98-2.58-2.95-2.38-.67.23-1,.65-1.21,1.53-2.41,7.29-11.22,8.66-17.83,9.66-1.9.29-4.31,1.86-3.12,2.99.96.91,1.85,1.21,3.57,1.01,4.29-.49,8.62-.63,12.44-2.51.33-.23.72-.28,1.01.07,1.01,1.2,2.45,1.65,3.79,2.31,5.59,1.89,10.33,14.22,9.39,0-1.13-4.46-4.72-8.06-5.1-12.69Z"/>
    </g>
  </g>
</svg>