<?xml version="1.0" encoding="UTF-8"?>
<svg id="Layer_2" xmlns="http://www.w3.org/2000/svg" version="1.1" viewBox="0 0 1080 1080">
  <!-- Generator: Adobe Illustrator 29.0.1, SVG Export Plug-In . SVG Version: 2.1.0 Build 192)  -->
  <defs>
    <style>
      .st0 {
        fill: #ec6fa7;
      }

      .st1 {
        fill: none;
        fill-rule: evenodd;
      }
    </style>
  </defs>
  <g id="Layer_1-2">
    <g>
      <path class="st1" d="M1080,132v816.1c0,72.8-59.1,132-132,132h-224.6v-406.9h140.5l26.7-174.3h-167.2v-113.1c0-47.7,23.4-94.2,98.2-94.2h76v-148.4s-69-11.8-135-11.8c-137.7,0-227.7,83.5-227.7,234.6v132.8h-153.1v174.3h153.1v406.9H132c-72.8,0-132-59.1-132-132V132C0,59.1,59.1,0,132,0h816.1c72.8,0,132,59.1,132,132Z"/>
      <path class="st0" d="M723.5,385.7v113.1h167.2l-26.7,174.3h-140.5v406.9h-188.4v-406.9h-153.1v-174.3h153.1v-132.8c0-151.1,90-234.6,227.7-234.6s135,11.8,135,11.8v148.4h-76c-74.9,0-98.2,46.5-98.2,94.2Z"/>
    </g>
  </g>
</svg>