<?xml version="1.0" encoding="UTF-8"?>
<svg id="Layer_2" xmlns="http://www.w3.org/2000/svg" version="1.1" viewBox="0 0 1080 1080">
  <!-- Generator: Adobe Illustrator 29.0.1, SVG Export Plug-In . SVG Version: 2.1.0 Build 192)  -->
  <defs>
    <style>
      .st0, .st1 {
        fill: none;
      }

      .st2 {
        fill: #fff;
      }

      .st2, .st3, .st1 {
        fill-rule: evenodd;
      }

      .st3 {
        fill: #ec6fa7;
      }
    </style>
  </defs>
  <g id="Layer_1-2">
    <path class="st1" d="M948,0H132C59.1,0,0,59.1,0,132v816.1c0,72.8,59.1,132,132,132h816.1c72.8,0,132-59.1,132-132V132c0-72.8-59.1-132-132-132ZM906.9,692.2c-1.8,39.3-8,66.1-17.2,89.6-9.4,24.3-22,44.9-42.6,65.4-20.5,20.5-41.1,33.2-65.4,42.6-23.5,9.1-50.3,15.4-89.6,17.2-39.4,1.8-52,2.2-152.2,2.2s-112.8-.4-152.2-2.2c-39.3-1.8-66.1-8-89.6-17.2-24.3-9.4-44.9-22-65.4-42.6-20.5-20.5-33.2-41.1-42.6-65.4-9.1-23.5-15.4-50.3-17.2-89.6-1.8-39.4-2.2-52-2.2-152.2s.4-112.8,2.2-152.2c1.8-39.3,8-66.1,17.2-89.6,9.4-24.3,22-44.9,42.6-65.4,20.5-20.5,41.1-33.2,65.4-42.6,23.5-9.1,50.3-15.4,89.6-17.2,39.4-1.8,52-2.2,152.2-2.2s112.8.4,152.2,2.2c39.3,1.8,66.1,8,89.6,17.2,24.3,9.4,44.9,22.1,65.4,42.6,20.5,20.5,33.2,41.1,42.6,65.4,9.1,23.5,15.4,50.3,17.2,89.6,1.8,39.4,2.2,52,2.2,152.2s-.4,112.8-2.2,152.2Z"/>
    <path class="st3" d="M906.9,387.8c-1.8-39.3-8-66.1-17.2-89.6-9.4-24.3-22-44.9-42.6-65.4-20.5-20.5-41.1-33.2-65.4-42.6-23.5-9.1-50.3-15.4-89.6-17.2-39.4-1.8-52-2.2-152.2-2.2s-112.8.4-152.2,2.2c-39.3,1.8-66.1,8-89.6,17.2-24.3,9.4-44.9,22.1-65.4,42.6-20.5,20.5-33.2,41.1-42.6,65.4-9.1,23.5-15.4,50.3-17.2,89.6-1.8,39.4-2.2,52-2.2,152.2s.4,112.8,2.2,152.2c1.8,39.3,8,66.1,17.2,89.6,9.4,24.3,22,44.9,42.6,65.4,20.5,20.5,41.1,33.2,65.4,42.6,23.5,9.1,50.3,15.4,89.6,17.2,39.4,1.8,52,2.2,152.2,2.2s112.8-.4,152.2-2.2c39.3-1.8,66.1-8,89.6-17.2,24.3-9.4,44.9-22,65.4-42.6,20.5-20.5,33.2-41.1,42.6-65.4,9.1-23.5,15.4-50.3,17.2-89.6,1.8-39.4,2.2-52,2.2-152.2s-.4-112.8-2.2-152.2ZM840.5,689.2c-1.6,36-7.7,55.5-12.7,68.6-6.7,17.2-14.7,29.5-27.6,42.4-12.9,12.9-25.2,20.9-42.4,27.6-13,5-32.6,11.1-68.6,12.7-38.9,1.8-50.6,2.2-149.2,2.2s-110.2-.4-149.2-2.2c-36-1.6-55.5-7.7-68.6-12.7-17.2-6.7-29.5-14.7-42.4-27.6-12.9-12.9-20.9-25.2-27.6-42.4-5-13-11.1-32.6-12.7-68.6-1.8-38.9-2.2-50.6-2.2-149.2s.4-110.2,2.2-149.2c1.6-36,7.7-55.5,12.7-68.6,6.7-17.2,14.7-29.5,27.6-42.4,12.9-12.9,25.2-20.9,42.4-27.6,13-5,32.6-11.1,68.6-12.7,38.9-1.8,50.6-2.2,149.2-2.2s110.2.4,149.2,2.2c36,1.6,55.5,7.7,68.6,12.7,17.2,6.7,29.5,14.7,42.4,27.6,12.9,12.9,20.9,25.2,27.6,42.4,5,13,11.1,32.6,12.7,68.6,1.8,38.9,2.2,50.6,2.2,149.2s-.4,110.2-2.2,149.2Z"/>
    <path class="st2" d="M764.4,377.8c1.4-1.1,2.7-2.3,4-3.5-1.2,1.2-2.6,2.4-4,3.5ZM763.5,378.5c-.8.6-1.7,1.2-2.6,1.8.9-.6,1.8-1.2,2.6-1.8Z"/>
    <path class="st1" d="M840.5,390.8c-1.6-36-7.7-55.5-12.7-68.6-6.7-17.2-14.7-29.5-27.6-42.4-12.9-12.9-25.2-20.9-42.4-27.6-13-5-32.6-11.1-68.6-12.7-38.9-1.8-50.6-2.2-149.2-2.2s-110.2.4-149.2,2.2c-36,1.6-55.5,7.7-68.6,12.7-17.2,6.7-29.5,14.7-42.4,27.6-12.9,12.9-20.9,25.2-27.6,42.4-5,13-11.1,32.6-12.7,68.6-1.8,38.9-2.2,50.6-2.2,149.2s.4,110.2,2.2,149.2c1.6,36,7.7,55.5,12.7,68.6,6.7,17.2,14.7,29.5,27.6,42.4,12.9,12.9,25.2,20.9,42.4,27.6,13,5,32.6,11.1,68.6,12.7,38.9,1.8,50.6,2.2,149.2,2.2s110.2-.4,149.2-2.2c36-1.6,55.5-7.7,68.6-12.7,17.2-6.7,29.5-14.7,42.4-27.6,12.9-12.9,20.9-25.2,27.6-42.4,5-13,11.1-32.6,12.7-68.6,1.8-38.9,2.2-50.6,2.2-149.2s-.4-110.2-2.2-149.2ZM540,729.6c-104.7,0-189.6-84.9-189.6-189.6s84.9-189.6,189.6-189.6,189.6,84.9,189.6,189.6-84.9,189.6-189.6,189.6ZM768.4,374.3c-1.2,1.2-2.6,2.4-4,3.5-.3.2-.6.4-.9.7-.8.6-1.7,1.2-2.6,1.8-.6.4-1.2.8-1.8,1.1-3.1,1.8-6.4,3.2-9.9,4.2-.7.2-1.4.4-2.1.5-3.2.7-6.6,1.1-10,1.1-12.2,0-23.3-5-31.3-13-1.2-1.2-2.4-2.6-3.5-4-.2-.3-.4-.6-.7-.8-.6-.9-1.2-1.7-1.8-2.6-.4-.6-.8-1.2-1.1-1.8-1.8-3.1-3.2-6.4-4.2-9.9-.2-.7-.4-1.4-.5-2.1-.7-3.2-1.1-6.6-1.1-10,0-24.5,19.8-44.3,44.3-44.3s44.3,19.8,44.3,44.3-5,23.3-13,31.3Z"/>
    <path class="st3" d="M781.3,343c0,12.2-5,23.3-13,31.3-1.2,1.2-2.6,2.4-4,3.5-.3.2-.6.4-.9.7-.8.6-1.7,1.2-2.6,1.8-.6.4-1.2.8-1.8,1.1-3.1,1.8-6.4,3.2-9.9,4.2-.7.2-1.4.4-2.1.5-3.2.7-6.6,1.1-10,1.1-12.2,0-23.3-5-31.3-13-1.2-1.2-2.4-2.6-3.5-4-.2-.3-.4-.6-.7-.8-.6-.9-1.2-1.7-1.8-2.6-.4-.6-.8-1.2-1.1-1.8-1.8-3.1-3.2-6.4-4.2-9.9-.2-.7-.4-1.4-.5-2.1-.7-3.2-1.1-6.6-1.1-10,0-24.5,19.8-44.3,44.3-44.3s44.3,19.8,44.3,44.3Z"/>
    <path class="st3" d="M540,350.4c-104.7,0-189.6,84.9-189.6,189.6s84.9,189.6,189.6,189.6,189.6-84.9,189.6-189.6-84.9-189.6-189.6-189.6ZM540,663c-68,0-123-55.1-123-123s55.1-123,123-123,123,55.1,123,123-55.1,123-123,123Z"/>
    <circle class="st0" cx="540" cy="540" r="123"/>
  </g>
</svg>