<?xml version="1.0" encoding="UTF-8"?>
<svg id="Layer_2" data-name="Layer 2" xmlns="http://www.w3.org/2000/svg" viewBox="0 0 1080 1080">
  <defs>
    <style>
      .cls-1 {
        fill: #fff;
        fill-rule: evenodd;
      }

      .cls-2 {
        fill: #ec6ea6;
      }
    </style>
  </defs>
  <g id="Layer_1-2" data-name="Layer 1">
    <g>
      <path class="cls-1" d="M1080,131.95v816.1c0,72.82-59.13,131.95-131.95,131.95h-224.58v-406.93h140.48l26.73-174.28h-167.21v-113.1c0-47.68,23.36-94.15,98.25-94.15h76.03v-148.37s-69-11.78-134.96-11.78c-137.72,0-227.73,83.47-227.73,234.57v132.83h-153.08v174.28h153.08v406.93H131.95c-72.82,0-131.95-59.13-131.95-131.95V131.95C0,59.13,59.12,0,131.95,0h816.1c72.83,0,131.95,59.13,131.95,131.95Z"/>
      <path class="cls-2" d="M723.47,385.69v113.1h167.21l-26.73,174.28h-140.48v406.93h-188.41v-406.93h-153.08v-174.28h153.08v-132.83c0-151.1,90.01-234.57,227.73-234.57,65.96,0,134.96,11.78,134.96,11.78v148.37h-76.03c-74.89,0-98.25,46.47-98.25,94.15Z"/>
    </g>
  </g>
</svg>