<?xml version="1.0" encoding="UTF-8"?>
<svg id="Layer_2" data-name="Layer 2" xmlns="http://www.w3.org/2000/svg" viewBox="0 0 921.6 921.6">
  <defs>
    <style>
      .cls-1 {
        fill: #ec6ea6;
      }

      .cls-2 {
        fill: #fff;
      }
    </style>
  </defs>
  <g id="Layer_1-2" data-name="Layer 1">
    <g>
      <path class="cls-2" d="M918.82,270.81c-2.23-49.04-10.02-82.54-21.41-111.85-11.78-30.3-27.54-56-53.15-81.62-25.62-25.62-51.32-41.37-81.62-53.15-29.31-11.39-62.81-19.18-111.86-21.42-49.14-2.24-64.84-2.77-189.98-2.77s-140.84.53-189.99,2.77c-49.04,2.24-82.54,10.03-111.85,21.42-30.31,11.78-56,27.53-81.62,53.15s-41.37,51.32-53.15,81.62c-11.39,29.31-19.18,62.81-21.42,111.85-2.24,49.15-2.77,64.84-2.77,189.99s.53,140.84,2.77,189.98c2.24,49.05,10.03,82.55,21.42,111.86,11.78,30.3,27.53,56,53.15,81.62,25.62,25.61,51.31,41.37,81.62,53.15,29.31,11.39,62.81,19.18,111.85,21.41,49.15,2.25,64.84,2.78,189.99,2.78s140.84-.53,189.98-2.78c49.05-2.23,82.55-10.02,111.86-21.41,30.3-11.78,56-27.54,81.62-53.15,25.61-25.62,41.37-51.32,53.15-81.62,11.39-29.31,19.18-62.81,21.41-111.86,2.25-49.14,2.78-64.84,2.78-189.98s-.53-140.84-2.78-189.99ZM835.88,647c-2.05,44.93-9.55,69.33-15.86,85.56-8.36,21.51-18.35,36.86-34.47,52.99-16.13,16.12-31.48,26.11-52.99,34.47-16.23,6.31-40.63,13.81-85.56,15.86-48.58,2.22-63.15,2.69-186.2,2.69s-137.62-.47-186.2-2.69c-44.93-2.05-69.33-9.55-85.57-15.86-21.51-8.36-36.86-18.35-52.98-34.47s-26.11-31.48-34.47-52.99c-6.31-16.23-13.82-40.63-15.87-85.56-2.22-48.59-2.68-63.16-2.68-186.2s.46-137.61,2.68-186.2c2.05-44.93,9.56-69.33,15.87-85.57,8.36-21.5,18.34-36.86,34.47-52.98,16.12-16.12,31.47-26.11,52.98-34.47,16.24-6.31,40.64-13.82,85.57-15.87,48.59-2.21,63.16-2.68,186.2-2.68s137.61.47,186.2,2.68c44.93,2.05,69.33,9.56,85.56,15.87,21.51,8.36,36.86,18.35,52.99,34.47,16.12,16.12,26.11,31.48,34.47,52.98,6.31,16.24,13.81,40.64,15.86,85.57,2.22,48.59,2.69,63.16,2.69,186.2s-.47,137.61-2.69,186.2Z"/>
      <path class="cls-1" d="M460.8,224.17c-130.69,0-236.63,105.94-236.63,236.63s105.94,236.62,236.63,236.62,236.62-105.94,236.62-236.62-105.94-236.63-236.62-236.63ZM460.8,614.4c-84.83,0-153.6-68.77-153.6-153.6s68.77-153.6,153.6-153.6,153.6,68.77,153.6,153.6-68.77,153.6-153.6,153.6Z"/>
      <path class="cls-2" d="M762.07,214.82c0,30.54-24.76,55.3-55.3,55.3s-55.29-24.76-55.29-55.3,24.76-55.29,55.29-55.29,55.3,24.75,55.3,55.29Z"/>
    </g>
  </g>
</svg>